# xmcd
#
# Track frame offsets:
#	182
#	20912
#	60877
#	85267
#	111435
#	148960
#	197562
#	217827
#	239770
#
# Disc length: 3416 seconds
#
# Revision: 1
# Processed by: cddbd v1.4PL0 Copyright (c) Steve Scherf et al.
# Submitted via: EasyCDDAExtractor 5.0.6
#
DISCID=830d5609
DTITLE=Robert Stewart - In The Gutta
DYEAR=1900
DGENRE=Blues
TTITLE0=Get Out
TTITLE1=Misty
TTITLE2=Honky Tonk
TTITLE3=In The Gutta
TTITLE4=Inner City Blues (Makes Me Wanna Holler)
TTITLE5=West Virginia Red
TTITLE6=Green Onions
TTITLE7=Soul Searchin
TTITLE8=To My Mother
EXTD=
EXTT0=
EXTT1=
EXTT2=
EXTT3=
EXTT4=
EXTT5=
EXTT6=
EXTT7=
EXTT8=
PLAYORDER=
